name analog
datacolumns 19
datarows 46
range 0.0 0.0225
endheader
time	ground_force_vx	ground_force_vy	ground_force_vz	ground_force_px	ground_force_py	ground_force_pz	l_ground_force_vx	l_ground_force_vy	l_ground_force_vz	l_ground_force_px	l_ground_force_py	l_ground_force_pz	ground_torque_x	ground_torque_y	ground_torque_z	l_ground_torque_x	l_ground_torque_y	l_ground_torque_z
0.0	-0.0	-0.0	-0.0	3.746116876602173	18.21134757995605	-416.1570129394531	-1.6222018003463743	-18.07754135131836	-377.0714721679688	-0.0	-0.0	-0.0	-0.0	-0.0	-0.0	134096.625	-15176.8759765625	-3022.9814453125
0.0005	-0.0	-0.0	-0.0	3.746293306350708	18.837684631347656	-415.4566040039063	-1.5366714000701904	-18.16580390930176	-379.1902770996094	-0.0	-0.0	-0.0	-0.0	-0.0	-0.0	134234.90625	-15364.8720703125	-2992.21533203125
0.001	-0.0	-0.0	-0.0	4.014472961425781	18.56870460510254	-413.8050537109375	-1.7057743072509766	-18.165752410888672	-378.6040954589844	-0.0	-0.0	-0.0	-0.0	-0.0	-0.0	134274.9375	-15629.53515625	-2932.989990234375
0.0015	-0.0	-0.0	-0.0	4.044336795806885	18.33121681213379	-414.6347351074219	-1.5054926872253418	-18.25400733947754	-380.2362976074219	-0.0	-0.0	-0.0	-0.0	-0.0	-0.0	134481.046875	-15593.94921875	-2931.9814453125
0.002	-0.0	-0.0	-0.0	3.895476818084717	18.27158546447754	-413.1032104492188	-1.4743893146514893	-18.07732582092285	-378.8392333984375	-0.0	-0.0	-0.0	-0.0	-0.0	-0.0	134514.875	-16001.5146484375	-2960.77734375
0.0025	-0.0	-0.0	-0.0	3.568755626678467	18.152667999267575	-413.3384704589844	-1.627854347229004	-17.898378372192383	-378.6026306152344	-0.0	-0.0	-0.0	-0.0	-0.0	-0.0	134722.53125	-16030.4814453125	-2843.0654296875
0.003	-0.0	-0.0	-0.0	3.98427677154541	18.09381484985352	-412.7505187988281	-1.184183120727539	-18.105945587158203	-379.056884765625	-0.0	-0.0	-0.0	-0.0	-0.0	-0.0	134980.0625	-15962.51171875	-2813.177734375
0.0035	-0.0	-0.0	-0.0	4.015396118164063	18.09347152709961	-412.8691711425781	-1.0625869035720823	-18.192333221435547	-379.40631103515625	-0.0	-0.0	-0.0	-0.0	-0.0	-0.0	135114.09375	-16057.12890625	-2843.452880859375
0.004	-0.0	-0.0	-0.0	3.687601804733277	18.005043029785156	-411.9292602539063	-1.1242376565933228	-17.75265884399414	-380.8102722167969	-0.0	-0.0	-0.0	-0.0	-0.0	-0.0	134847.09375	-16156.337890625	-2614.605224609375
0.0045000000000000005	-0.0	-0.0	-0.0	4.160225868225098	18.15347671508789	-410.9790954589844	-1.0033528804779053	-18.19426727294922	-379.6422119140625	-0.0	-0.0	-0.0	-0.0	-0.0	-0.0	135004.046875	-16384.6796875	-2625.9990234375
0.005	-0.0	-0.0	-0.0	4.252021789550781	17.917285919189453	-411.8078002929688	-0.7970267534255981	-17.636714935302734	-381.0498046875	-0.0	-0.0	-0.0	-0.0	-0.0	-0.0	135085.6875	-16604.533203125	-2614.565673828125
0.0055	-0.0	-0.0	-0.0	4.011998653411865	17.97298240661621	-412.6139526367188	-0.6501553058624268	-17.96068572998047	-380.3271179199219	-0.0	-0.0	-0.0	-0.0	-0.0	-0.0	135298.4375	-16885.83203125	-2605.70263671875
0.006	-0.0	-0.0	-0.0	3.657630920410156	17.61901092529297	-411.3404541015625	-0.4435539245605469	-17.986433029174805	-383.14263916015625	-0.0	-0.0	-0.0	-0.0	-0.0	-0.0	135480.734375	-16758.14453125	-2644.630859375
0.006500000000000001	-0.0	-0.0	-0.0	4.341046333312988	17.587337493896484	-412.1610107421875	-0.7088708877563477	-18.19345474243164	-382.670166015625	-0.0	-0.0	-0.0	-0.0	-0.0	-0.0	135359.015625	-16908.544921875	-2516.226318359375
0.007	-0.0	-0.0	-0.0	4.4605255126953125	17.17363739013672	-411.3415832519531	-0.5016290545463562	-18.04748916625977	-381.625244140625	-0.0	-0.0	-0.0	-0.0	-0.0	-0.0	135392.921875	-17092.03125	-2615.803955078125
0.0075	-0.0	-0.0	-0.0	4.39790153503418	17.287521362304688	-412.2662658691406	-0.3543214201927185	-18.42996406555176	-381.3892822265625	-0.0	-0.0	-0.0	-0.0	-0.0	-0.0	135393.0625	-16907.642578125	-2595.708740234375
0.008	-0.0	-0.0	-0.0	4.131999492645264	16.549962997436523	-412.5057373046875	-0.4432714879512787	-18.311935424804688	-381.15533447265625	-0.0	-0.0	-0.0	-0.0	-0.0	-0.0	135562.546875	-17146.67578125	-2585.832275390625
0.0085	-0.0	-0.0	-0.0	4.042671203613281	16.521909713745117	-409.9302673339844	-0.6507229208946228	-18.13545608520508	-382.0885620117188	-0.0	-0.0	-0.0	-0.0	-0.0	-0.0	135245.328125	-17274.255859375	-2487.0078125
0.009000000000000001	-0.0	-0.0	-0.0	4.491085052490234	15.898208618164062	-409.9013977050781	-0.3253580331802368	-18.400266647338867	-381.5058898925781	-0.0	-0.0	-0.0	-0.0	-0.0	-0.0	135215.609375	-17295.25	-2308.823486328125
0.0095	-0.0	-0.0	-0.0	4.103683471679688	16.01820182800293	-409.3460998535156	-0.5322647094726562	-18.51827812194824	-380.9254150390625	-0.0	-0.0	-0.0	-0.0	-0.0	-0.0	135288.015625	-17326.501953125	-2407.785888671875
0.01	-0.0	-0.0	-0.0	4.521854877471924	15.898629188537598	-409.4459228515625	-0.2364400029182434	-18.311786651611328	-380.6892395019531	-0.0	-0.0	-0.0	-0.0	-0.0	-0.0	135342.328125	-17504.10546875	-2358.207275390625
0.0105	-0.0	-0.0	-0.0	4.4605255126953125	16.123538970947266	-410.76025390625	-0.6215810775756836	-18.54875946044922	-382.4382019042969	-0.0	-0.0	-0.0	-0.0	-0.0	-0.0	135488.359375	-17776.58203125	-2338.6572265625
0.011	-0.0	-0.0	-0.0	4.454123497009277	15.978721618652344	-408.99505615234375	-0.590363085269928	-18.3427677154541	-383.0193481445313	-0.0	-0.0	-0.0	-0.0	-0.0	-0.0	135520.0	-17833.8671875	-2318.612548828125
0.0115	-0.0	-0.0	-0.0	4.498004913330078	15.954341888427734	-409.5666198730469	-0.2661323547363281	-18.634981155395508	-381.9754333496094	-0.0	-0.0	-0.0	-0.0	-0.0	-0.0	135514.953125	-17679.22265625	-2358.369873046875
0.012	-0.0	-0.0	-0.0	4.964865207672119	16.136157989501953	-409.1990356445313	-0.3859301805496216	-18.314672470092773	-383.0193481445313	-0.0	-0.0	-0.0	-0.0	-0.0	-0.0	135652.328125	-18073.787109375	-2338.370849609375
0.0125	-0.0	-0.0	-0.0	5.061488628387451	16.28737449645996	-408.1681518554688	-0.3261486291885376	-18.54886245727539	-381.853759765625	-0.0	-0.0	-0.0	-0.0	-0.0	-0.0	135949.90625	-18146.044921875	-2328.33349609375
0.013000000000000001	-0.0	-0.0	-0.0	4.875542163848877	15.97756290435791	-408.3068542480469	-0.2676049172878265	-18.66727066040039	-383.8243713378906	-0.0	-0.0	-0.0	-0.0	-0.0	-0.0	136331.5625	-18202.1328125	-2319.21923828125
0.0135	-0.0	-0.0	-0.0	4.848469257354736	16.043472290039062	-408.2597961425781	-0.1489650905132293	-18.609207153320312	-385.2393798828125	-0.0	-0.0	-0.0	-0.0	-0.0	-0.0	136613.234375	-18119.390625	-2269.373779296875
0.014	-0.0	-0.0	-0.0	5.21391487121582	16.043472290039062	-407.4462890625	0.1188966780900955	-18.87262535095215	-385.6937561035156	-0.0	-0.0	-0.0	-0.0	-0.0	-0.0	136939.578125	-18491.990234375	-2289.45751953125
0.0145	-0.0	-0.0	-0.0	5.0582709312438965	16.079195022583008	-403.8262023925781	-0.1774215698242187	-18.812519073486328	-389.0576171875	-0.0	-0.0	-0.0	-0.0	-0.0	-0.0	137618.296875	-18682.140625	-2279.612548828125
0.015	-0.0	-0.0	-0.0	5.3792805671691895	15.882585525512695	-402.78564453125	-0.0562032759189605	-19.400598526000977	-391.0498046875	-0.0	-0.0	-0.0	-0.0	-0.0	-0.0	138379.9375	-18809.7578125	-2220.373779296875
0.0155	-0.0	-0.0	-0.0	5.116318702697754	15.766593933105469	-401.21240234375	0.1167345121502876	-19.579513549804688	-392.6761474609375	-0.0	-0.0	-0.0	-0.0	-0.0	-0.0	139509.796875	-19282.013671875	-2279.650146484375
0.016	-0.0	-0.0	-0.0	5.463263988494873	15.807452201843262	-397.68060302734375	0.4739772081375122	-20.07931327819824	-394.7807922363281	-0.0	-0.0	-0.0	-0.0	-0.0	-0.0	140113.84375	-19359.53515625	-2327.875732421875
0.0165	-0.0	-0.0	-0.0	5.767244338989258	15.823598861694336	-396.1636657714844	0.3102856278419494	-21.07036781311035	-397.8036804199219	-0.0	-0.0	-0.0	-0.0	-0.0	-0.0	141119.671875	-19449.451171875	-2255.94091796875
0.017	-0.0	-0.0	-0.0	5.242526054382324	15.68695068359375	-394.2315368652344	0.6878334879875183	-21.6634521484375	-400.3453369140625	-0.0	-0.0	-0.0	-0.0	-0.0	-0.0	142160.859375	-19813.353515625	-2354.812255859375
0.0175	-0.0	-0.0	-0.0	5.0163187980651855	15.414040565490724	-392.4266662597656	1.1288225650787354	-22.10780906677246	-403.6192626953125	-0.0	-0.0	-0.0	-0.0	-0.0	-0.0	143070.765625	-20020.82421875	-2196.85009765625
0.018000000000000002	-0.0	-0.0	-0.0	5.542453289031982	15.623733520507812	-390.0585021972656	1.1773645877838137	-22.6103515625	-407.33929443359375	-0.0	-0.0	-0.0	-0.0	-0.0	-0.0	143654.5	-20151.501953125	-1994.58154296875
0.0185	-0.0	-0.0	-0.0	5.263420104980469	15.770145416259766	-389.88714599609375	1.153240203857422	-23.340545654296875	-409.4062805175781	-0.0	-0.0	-0.0	-0.0	-0.0	-0.0	144643.578125	-20326.724609375	-1905.9521484375
0.019	-0.0	-0.0	-0.0	5.786565780639648	15.330429077148438	-386.9595031738281	1.1604866981506348	-24.16949844360352	-410.253173828125	-0.0	-0.0	-0.0	-0.0	-0.0	-0.0	145276.1875	-20637.099609375	-1728.251220703125
0.0195	-0.0	-0.0	-0.0	5.35880708694458	15.266895294189451	-386.1759948730469	1.3848150968551636	-24.19641876220703	-413.38079833984375	-0.0	-0.0	-0.0	-0.0	-0.0	-0.0	145615.34375	-20727.37109375	-1733.4786376953125
0.02	-0.0	-0.0	-0.0	5.537468433380127	15.76966953277588	-384.0073852539063	1.0685091018676758	-24.69931030273437	-414.7607727050781	-0.0	-0.0	-0.0	-0.0	-0.0	-0.0	146367.375	-20643.576171875	-1608.70263671875
0.0205	-0.0	-0.0	-0.0	5.320695877075195	15.362335205078123	-383.6798400878906	1.2068397998809814	-25.43250846862793	-416.4160461425781	-0.0	-0.0	-0.0	-0.0	-0.0	-0.0	146963.234375	-21060.361328125	-1519.8572998046875
0.021	-0.0	-0.0	-0.0	5.798683166503906	15.298469543457031	-382.5670471191406	1.1265467405319214	-25.966575622558597	-417.34124755859375	-0.0	-0.0	-0.0	-0.0	-0.0	-0.0	147426.09375	-21122.736328125	-1687.718505859375
0.021500000000000002	-0.0	-0.0	-0.0	5.595160007476807	15.216218948364258	-380.1653137207031	0.7452719211578369	-26.200603485107425	-418.1613464355469	-0.0	-0.0	-0.0	-0.0	-0.0	-0.0	147670.546875	-21030.2265625	-1559.0458984375
0.022	-0.0	-0.0	-0.0	5.641465663909912	15.25924015045166	-379.9656372070313	0.9447061419487	-26.615802764892575	-419.1044006347656	-0.0	-0.0	-0.0	-0.0	-0.0	-0.0	147954.9375	-21263.0234375	-1784.3837890625
0.0225	-0.0	-0.0	-0.0	5.684607982635498	14.973907470703123	-376.77349853515625	0.8607816100120544	-27.13127899169922	-421.1804809570313	-0.0	-0.0	-0.0	-0.0	-0.0	-0.0	148167.0625	-21215.0859375	-1648.231689453125
